<?xml version="1.0" encoding="utf-8"?>
<svg xmlns="http://www.w3.org/2000/svg" viewBox="0 0 1280 720" width="1280" height="720"
     font-family="Noto Sans TC, PingFang TC, sans-serif">
  <defs>
    <marker id="arrow" viewBox="0 0 10 10" refX="9" refY="5" markerWidth="7" markerHeight="7"
            orient="auto-start-reverse">
      <path d="M 0 0 L 10 5 L 0 10 z" fill="#2456a4"/>
    </marker>
  </defs>

  <rect x="60" y="90" width="1160" height="520" fill="none" stroke="#9aa7bd"
        stroke-width="2" stroke-dasharray="8 6" rx="12"/>
  <text x="84" y="128" font-size="22" fill="#6b6b6b">生產環境</text>

  <g transform="translate(80, 40)">
    <rect x="60" y="140" width="220" height="90" fill="#dbe6f6" stroke="#2456a4" stroke-width="2" rx="10"/>
    <text x="170" y="192" font-size="24" text-anchor="middle" fill="#1a1a1a">使用者</text>
  </g>

  <rect x="500" y="180" width="220" height="90" fill="#dbe6f6" stroke="#2456a4" stroke-width="2" rx="10"/>
  <text x="610" y="232" font-size="24" text-anchor="middle" fill="#1a1a1a">API Gateway</text>

  <rect x="880" y="180" width="220" height="90" fill="#dbe6f6" stroke="#2456a4" stroke-width="2" rx="10"/>
  <text x="990" y="232" font-size="24" text-anchor="middle" fill="#1a1a1a">訂單服務</text>

  <rect x="880" y="420" width="220" height="90" fill="#e8efe4" stroke="#2456a4" stroke-width="2" rx="10"/>
  <text x="990" y="472" font-size="24" text-anchor="middle" fill="#1a1a1a">PostgreSQL</text>

  <rect x="500" y="420" width="220" height="90" fill="#f6e6db" stroke="#d96c2c" stroke-width="2" rx="10"/>
  <text x="610" y="472" font-size="24" text-anchor="middle" fill="#1a1a1a">霛燼</text>

  <path d="M 360 225 L 500 225" fill="none" stroke="#2456a4" stroke-width="2" marker-end="url(#arrow)"/>
  <text x="430" y="208" font-size="20" text-anchor="middle" fill="#6b6b6b">登入</text>

  <path d="M 720 225 L 880 225" fill="none" stroke="#2456a4" stroke-width="2" marker-end="url(#arrow)"/>

  <path d="M 990 270 L 990 420" fill="none" stroke="#2456a4" stroke-width="2" marker-end="url(#arrow)"/>
  <text x="1012" y="352" font-size="20" fill="#6b6b6b">讀寫</text>

  <path d="M 610 270 L 610 420" fill="none" stroke="#2456a4" stroke-width="2" marker-end="url(#arrow)"/>
</svg>
